Coordinates
version=1
nRows=17
nColumns=40
inDegrees=yes

Units are S.I. units (second, meters, Newtons, ...)
Angles are in degrees.

endheader
time	pelvis_tilt	pelvis_list	pelvis_rotation	pelvis_tx	pelvis_ty	pelvis_tz	hip_flexion_r	hip_adduction_r	hip_rotation_r	knee_angle_r	knee_angle_r_beta	ankle_angle_r	subtalar_angle_r	mtp_angle_r	hip_flexion_l	hip_adduction_l	hip_rotation_l	knee_angle_l	knee_angle_l_beta	ankle_angle_l	subtalar_angle_l	mtp_angle_l	lumbar_extension	lumbar_bending	lumbar_rotation	arm_flex_r	arm_add_r	arm_rot_r	elbow_flex_r	pro_sup_r	wrist_flex_r	wrist_dev_r	arm_flex_l	arm_add_l	arm_rot_l	elbow_flex_l	pro_sup_l	wrist_flex_l	wrist_dev_l
      1.69999967	      8.96714428	      5.97409043	     -3.49692164	      0.85128538	      1.10468907	     -0.49110642	     11.32843986	     -8.40150216	      4.15962256	     65.59205863	     65.59205863	      5.64253876	      0.00000000	      0.00000000	     -1.32486367	      7.43798328	     -6.27868838	     23.99765929	     23.99765929	     12.85371953	      0.00000000	      0.00000000	    -23.56605346	     -4.01269704	     -5.10891944	     -8.20157412	    -12.51100733	     -2.19214429	     28.51142226	     55.15773444	      0.00000000	      0.00000000	      1.82151428	    -16.96352779	      3.63920215	     40.96615314	     56.21662575	      0.00000000	      0.00000000
      1.70833300	      9.41777456	      5.74523741	     -3.25351579	      0.85047659	      1.10608202	     -0.49137872	     11.54635013	     -8.24219843	      3.55955154	     64.00715899	     64.00715899	      6.09244884	      0.00000000	      0.00000000	     -2.79898805	      7.27823770	     -6.00750206	     23.20660982	     23.20660982	     12.90390065	      0.00000000	      0.00000000	    -24.26148870	     -3.65410147	     -5.60948856	     -8.41707219	    -12.47627954	     -2.20958422	     28.67782151	     54.84959080	      0.00000000	      0.00000000	      2.04180096	    -17.09115626	      3.06665048	     41.94000379	     56.37148209	      0.00000000	      0.00000000
      1.71666633	      9.26294891	      5.73088047	     -3.15410761	      0.84959844	      1.10624245	     -0.49129679	     12.56787372	     -8.17111089	      3.37619965	     62.51452635	     62.51452635	      6.29004313	      0.00000000	      0.00000000	     -3.35170178	      7.25352544	     -6.14951257	     22.98509550	     22.98509550	     13.07156846	      0.00000000	      0.00000000	    -24.18357629	     -3.60047322	     -5.84766809	     -8.73556106	    -12.35994964	     -2.18453348	     28.67417451	     54.79552113	      0.00000000	      0.00000000	      2.43451097	    -17.23372405	      3.00121781	     42.32159862	     56.37480685	      0.00000000	      0.00000000
      1.72499967	      9.68983390	      5.28888227	     -2.98793994	      0.84899690	      1.10743879	     -0.49149239	     12.63163556	     -7.68683905	      2.94329776	     60.45796721	     60.45796721	      6.65912486	      0.00000000	      0.00000000	     -4.88199176	      6.88821355	     -5.84977270	     22.04571265	     22.04571265	     13.23075739	      0.00000000	      0.00000000	    -24.81396238	     -3.02376427	     -6.13509504	     -8.95138252	    -12.41256870	     -2.23464096	     28.78826801	     54.36675897	      0.00000000	      0.00000000	      2.58981211	    -17.30424153	      2.56599828	     43.31959202	     56.56133969	      0.00000000	      0.00000000
      1.73333300	      9.79006219	      5.08665355	     -2.87488069	      0.84818775	      1.10785521	     -0.49148556	     13.15535737	     -7.38777543	      2.75584145	     58.45700222	     58.45700222	      6.82467413	      0.00000000	      0.00000000	     -5.86431128	      6.71896334	     -5.74092782	     21.47197904	     21.47197904	     13.35086796	      0.00000000	      0.00000000	    -25.06264072	     -2.74292436	     -6.37604992	     -9.17453124	    -12.38481063	     -2.21665526	     28.84643161	     53.93135345	      0.00000000	      0.00000000	      2.86530113	    -17.39761032	      2.29354169	     44.02574365	     56.74805131	      0.00000000	      0.00000000
      1.74166633	      9.73861019	      4.95207576	     -2.77662496	      0.84738806	      1.10783286	     -0.49140861	     13.83687055	     -7.14402392	      2.63729709	     56.37862938	     56.37862938	      6.94011819	      0.00000000	      0.00000000	     -6.65353358	      6.61541611	     -5.61104582	     20.94771370	     20.94771370	     13.50657457	      0.00000000	      0.00000000	    -25.12066314	     -2.54239760	     -6.58214634	     -9.39632705	    -12.33363784	     -2.21639845	     28.85194170	     53.66132497	      0.00000000	      0.00000000	      3.13849338	    -17.51572106	      2.16888351	     44.67268001	     56.85655283	      0.00000000	      0.00000000
      1.74999967	      9.93163342	      4.82973415	     -2.64039699	      0.84661015	      1.10802464	     -0.49135575	     14.13932509	     -6.97937760	      2.34768657	     54.05209234	     54.05209234	      6.92726867	      0.00000000	      0.00000000	     -7.72106426	      6.51924270	     -5.49244909	     20.40213109	     20.40213109	     13.58294539	      0.00000000	      0.00000000	    -25.47504205	     -2.34901026	     -6.88667291	     -9.56587227	    -12.28295594	     -2.18302592	     28.93424812	     53.18079424	      0.00000000	      0.00000000	      3.41048873	    -17.62054421	      1.88586765	     45.38109748	     57.02706042	      0.00000000	      0.00000000
      1.75833300	      9.67737962	      4.96107086	     -2.60809175	      0.84595440	      1.10714320	     -0.49100056	     15.02779713	     -7.04389152	      2.23598706	     51.86587953	     51.86587953	      7.00345501	      0.00000000	      0.00000000	     -8.15479053	      6.65991216	     -5.54528057	     20.18208260	     20.18208260	     13.81800638	      0.00000000	      0.00000000	    -25.23009545	     -2.49496983	     -7.04571690	     -9.85491830	    -12.16686414	     -2.17522701	     28.92381164	     53.11199228	      0.00000000	      0.00000000	      3.72941465	    -17.77186448	      1.86292003	     45.83444930	     57.04467732	      0.00000000	      0.00000000
      1.76666633	      9.97693967	      4.66220205	     -2.49095264	      0.84523416	      1.10725629	     -0.49079225	     15.00672984	     -6.68776017	      1.89179239	     49.12698054	     49.12698054	      6.87184065	      0.00000000	      0.00000000	     -9.41409176	      6.38981491	     -5.23495962	     19.47543132	     19.47543132	     13.94641259	      0.00000000	      0.00000000	    -25.74767279	     -2.12154159	     -7.28820544	     -9.90377391	    -12.13655068	     -2.29352562	     28.97793607	     52.57322252	      0.00000000	      0.00000000	      3.95729307	    -17.88114141	      1.64006740	     46.68077737	     57.18173152	      0.00000000	      0.00000000
      1.77499967	      9.78526375	      4.63755964	     -2.48917753	      0.84459265	      1.10624088	     -0.49031122	     15.61541000	     -6.56093397	      1.78319541	     46.52766703	     46.52766703	      6.84837738	      0.00000000	      0.00000000	     -9.99686051	      6.38706750	     -5.09355168	     19.08751500	     19.08751500	     14.24717444	      0.00000000	      0.00000000	    -25.61677029	     -2.11441070	     -7.40127618	    -10.03953844	    -12.04747122	     -2.41780963	     28.94356162	     52.28286598	      0.00000000	      0.00000000	      4.20261756	    -18.02840955	      1.65221072	     47.30037127	     57.25765554	      0.00000000	      0.00000000
      1.78333300	      9.47717380	      4.89930355	     -2.50680399	      0.84408397	      1.10471754	     -0.48975127	     16.39793888	     -6.78490307	      1.54761997	     44.03194507	     44.03194507	      6.92935161	      0.00000000	      0.00000000	    -10.35493580	      6.65341333	     -5.23378879	     18.91137422	     18.91137422	     14.56214275	      0.00000000	      0.00000000	    -25.30778702	     -2.44052853	     -7.53444872	    -10.28417834	    -11.91382326	     -2.45355064	     28.97422403	     52.19383664	      0.00000000	      0.00000000	      4.49802619	    -18.14667809	      1.65384830	     47.72933408	     57.27782443	      0.00000000	      0.00000000
      1.79166633	      9.72759437	      4.60100117	     -2.45654143	      0.84346350	      1.10436491	     -0.48930143	     16.16263564	     -6.39946406	      1.23223679	     40.73420824	     40.73420824	      6.51668452	      0.00000000	      0.00000000	    -11.53746286	      6.37582607	     -4.90050892	     18.27156310	     18.27156310	     14.73710692	      0.00000000	      0.00000000	    -25.75951328	     -2.11208696	     -7.66184404	    -10.22860657	    -11.86513863	     -2.77039740	     28.93567018	     51.60301370	      0.00000000	      0.00000000	      4.74977986	    -18.26747524	      1.63658670	     48.45647414	     57.46091725	      0.00000000	      0.00000000
      1.79999967	      9.41136045	      4.80008988	     -2.51045042	      0.84290841	      1.10269592	     -0.48863146	     16.75834196	     -6.49153255	      1.19092739	     37.83475510	     37.83475510	      6.40008411	      0.00000000	      0.00000000	    -11.93071845	      6.59927071	     -4.77167328	     17.97798742	     17.97798742	     14.99173185	      0.00000000	      0.00000000	    -25.48325291	     -2.36786618	     -7.81300665	    -10.32480943	    -11.75273687	     -2.78085021	     28.95308117	     51.43415314	      0.00000000	      0.00000000	      4.98632119	    -18.44765325	      1.72334737	     48.91597926	     57.54562623	      0.00000000	      0.00000000
      1.80833300	      9.45910514	      4.74770227	     -2.57089300	      0.84256984	      1.10165749	     -0.48813565	     16.74947897	     -6.39678574	      0.76343081	     34.59837563	     34.59837563	      5.94749490	      0.00000000	      0.00000000	    -12.83573815	      6.58855268	     -4.73940816	     17.47725338	     17.47725338	     15.14474447	      0.00000000	      0.00000000	    -25.62819604	     -2.33815996	     -7.81482840	    -10.34167251	    -11.72122467	     -2.60719349	     28.79023186	     51.16863872	      0.00000000	      0.00000000	      5.30687886	    -18.48082913	      1.73949290	     49.38033599	     57.77103680	      0.00000000	      0.00000000
      1.81666633	      9.13475295	      4.87906442	     -2.69743280	      0.84221087	      1.09982033	     -0.48753535	     17.22749113	     -6.41396814	      0.66712734	     31.53936022	     31.53936022	      5.60255148	      0.00000000	      0.00000000	    -13.25121603	      6.77248894	     -4.67534245	     17.14791791	     17.14791791	     15.38292131	      0.00000000	      0.00000000	    -25.33290853	     -2.52632589	     -7.82214488	    -10.37850140	    -11.66698518	     -2.48728612	     28.64865190	     51.11853427	      0.00000000	      0.00000000	      5.55519221	    -18.54750190	      1.81518129	     49.78949839	     57.89363728	      0.00000000	      0.00000000
      1.82499967	      9.03211534	      4.85060120	     -2.80817687	      0.84196886	      1.09831852	     -0.48699930	     17.31998209	     -6.28531453	      0.38184204	     28.30683780	     28.30683780	      5.10905254	      0.00000000	      0.00000000	    -13.94747055	      6.78836259	     -4.75308097	     16.75272796	     16.75272796	     15.58204050	      0.00000000	      0.00000000	    -25.30358098	     -2.53043323	     -7.81795342	    -10.33556792	    -11.69294051	     -2.28884995	     28.49660782	     51.11230900	      0.00000000	      0.00000000	      5.82043512	    -18.55212925	      1.86049350	     50.10485545	     58.11168681	      0.00000000	      0.00000000
      1.83333300	      8.75109138	      4.94178779	     -2.89474513	      0.84175789	      1.09631794	     -0.48640349	     17.63556997	     -6.24721307	      0.23908939	     25.27408625	     25.27408625	      4.70376142	      0.00000000	      0.00000000	    -14.39627007	      6.91828189	     -4.70335611	     16.47486821	     16.47486821	     15.82724477	      0.00000000	      0.00000000	    -25.06354531	     -2.66797394	     -7.83737402	    -10.32750074	    -11.69113228	     -2.25158000	     28.39839395	     51.09720470	      0.00000000	      0.00000000	      6.05385352	    -18.60487286	      1.95549661	     50.44436557	     58.26987419	      0.00000000	      0.00000000
